<svg width="105" height="35" viewBox="0 0 105 35" fill="none" xmlns="http://www.w3.org/2000/svg">
<path d="M84.7566 18.977C84.8269 18.9706 84.9023 18.9618 84.9819 18.95C84.9475 19.2771 84.864 19.5981 84.7336 19.9022L84.7323 19.9051C84.5602 20.3073 84.3153 20.668 83.995 20.9833L83.9899 20.9884L83.9847 20.9935C83.6697 21.3058 83.296 21.5547 82.8841 21.7256L82.8816 21.7266C82.4466 21.9074 81.9885 22 81.5 22C81.0116 22 80.5563 21.9075 80.1256 21.7275L80.1203 21.7253C79.7088 21.554 79.3371 21.3079 79.0061 20.9824C78.6912 20.6717 78.4401 20.3039 78.2662 19.8996C78.0898 19.4871 78.0002 19.0539 78 18.5898C78.0004 18.0742 78.1195 17.5651 78.3486 17.1015C78.5847 16.6353 78.9236 16.2267 79.3411 15.9068L79.3411 15.9068L79.3503 15.8998C79.6719 15.6519 79.9784 15.3853 80.2681 15.1016C80.3275 16.1279 80.772 17.1695 81.635 17.9409C82.7045 18.9015 83.9499 19.05 84.7565 18.977L84.7566 18.977ZM85.9028 12.5464L85.863 12.7092L85.9028 12.5464Z" stroke="white" stroke-width="8"/>
<rect width="105" height="35" rx="5" fill="#FF2727"/>
<path d="M32.436 11.4L29.916 24H27.99L22.824 15.18L21.06 24H18.738L21.258 11.4H23.184L28.368 20.22L30.114 11.4H32.436ZM37.7563 13.362L37.1083 16.638H43.2103L42.8323 18.564H36.7123L36.0283 22.038H43.1563L42.7603 24H33.3103L35.8303 11.4H45.0283L44.6323 13.362H37.7563ZM66.1271 11.4L59.4491 24H56.9471L55.6871 14.766L50.6471 24H48.1451L46.4891 11.4H48.8111L50.0531 20.976L55.2191 11.4H57.3971L58.6391 21.066L63.8051 11.4H66.1271Z" fill="white"/>
<path d="M86.6193 17.7333L86.619 17.7326C86.4601 17.375 86.2549 17.0409 86.0094 16.7386C85.8482 17.0116 85.6524 17.2721 85.4316 17.5181L85.4251 17.5252L85.4186 17.5323C85.1779 17.7902 84.8894 17.8612 84.714 17.8771C84.5002 17.8966 84.1711 17.857 83.8885 17.6022C83.6255 17.3673 83.5093 17.0371 83.5265 16.7273L83.5269 16.7214C83.5698 16.0232 83.3641 15.1485 82.8035 14.097L82.8027 14.0955C82.5181 13.5595 82.1652 13.1104 81.7491 12.745C81.7106 13.0322 81.6445 13.3099 81.5464 13.5728L86.6193 17.7333ZM86.6193 17.7333C86.8729 18.3029 87 18.9049 87 19.5281L87 19.5302C87.0012 20.1248 86.8814 20.7133 86.6477 21.2601L86.6474 21.2608C86.4218 21.7897 86.0987 22.2657 85.6848 22.6744L85.6822 22.677C85.2728 23.0843 84.788 23.408 84.2548 23.6299L84.2541 23.6302C83.6987 23.8618 83.1108 23.9797 82.5 23.9797C81.8892 23.9797 81.302 23.8618 80.7477 23.6293L80.7463 23.6288M86.6193 17.7333L80.7463 23.6288M80.6478 15.1315L80.6474 15.132C80.3802 15.4569 80.0774 15.7509 79.7446 16.0082L79.7423 16.01L79.7423 16.01C79.2036 16.4241 78.7654 16.9546 78.4605 17.5618C78.1581 18.1726 78.0005 18.8449 78 19.5265L80.6478 15.1315ZM80.6478 15.1315C81.0327 14.6628 81.3353 14.1386 81.5462 13.5733L80.6478 15.1315ZM80.7463 23.6288C80.2123 23.4057 79.7322 23.0846 79.3157 22.6734L80.7463 23.6288ZM78.3523 21.2584C78.1185 20.7105 78.0001 20.1304 78 19.5271L79.3157 22.6733C78.9062 22.2683 78.579 21.7879 78.3523 21.2584Z" stroke="white" stroke-width="2"/>
</svg>
